<svg width="30" height="30" viewBox="0 0 30 30" fill="none" xmlns="http://www.w3.org/2000/svg">
<path d="M28.2966 0L22.5257 1.18063L26.5492 6.53885L29.442 5.9334L28.2966 0ZM18.2085 2.05853L15.3157 2.64884L19.3539 7.99193L22.232 7.40162L18.2085 2.05853ZM11.0132 3.5116L8.12042 4.13219L12.1586 9.47528L15.0367 8.88496L11.0132 3.5116ZM3.80325 5.02523L2.36419 5.31282C0.778285 5.63068 -0.264299 7.23512 0.0587551 8.86983L0.631442 11.8365L7.82674 10.3683L3.80325 5.02523ZM27.0631 14.8638V26.9728H3.5683V14.8638H27.0631ZM30 11.8365H0.631442V26.9728C0.631442 28.6529 1.95303 30 3.5683 30H27.0631C28.6931 30 30 28.6529 30 26.9728V11.8365Z" fill="black"/>
</svg>
